%TF.GenerationSoftware,KiCad,Pcbnew,7.0.10*%
%TF.CreationDate,2024-02-07T22:08:23+01:00*%
%TF.ProjectId,Sixty-n8k,53697874-792d-46e3-986b-2e6b69636164,rev?*%
%TF.SameCoordinates,Original*%
%TF.FileFunction,Drillmap*%
%TF.FilePolarity,Positive*%
%FSLAX45Y45*%
G04 Gerber Fmt 4.5, Leading zero omitted, Abs format (unit mm)*
G04 Created by KiCad (PCBNEW 7.0.10) date 2024-02-07 22:08:23*
%MOMM*%
%LPD*%
G01*
G04 APERTURE LIST*
%ADD10C,0.200000*%
G04 APERTURE END LIST*
D10*
X6793000Y-15004000D02*
X6795000Y-5034000D01*
X21778000Y-5033000D02*
X21779000Y-15003000D01*
X6795000Y-5034000D02*
X21778000Y-5033000D01*
X21779000Y-15003000D02*
X6793000Y-15004000D01*
X7043777Y-15325484D02*
X7043777Y-15125484D01*
X7043777Y-15125484D02*
X7091396Y-15125484D01*
X7091396Y-15125484D02*
X7119967Y-15135008D01*
X7119967Y-15135008D02*
X7139015Y-15154055D01*
X7139015Y-15154055D02*
X7148539Y-15173103D01*
X7148539Y-15173103D02*
X7158062Y-15211198D01*
X7158062Y-15211198D02*
X7158062Y-15239769D01*
X7158062Y-15239769D02*
X7148539Y-15277865D01*
X7148539Y-15277865D02*
X7139015Y-15296912D01*
X7139015Y-15296912D02*
X7119967Y-15315960D01*
X7119967Y-15315960D02*
X7091396Y-15325484D01*
X7091396Y-15325484D02*
X7043777Y-15325484D01*
X7243777Y-15325484D02*
X7243777Y-15192150D01*
X7243777Y-15230246D02*
X7253301Y-15211198D01*
X7253301Y-15211198D02*
X7262824Y-15201674D01*
X7262824Y-15201674D02*
X7281872Y-15192150D01*
X7281872Y-15192150D02*
X7300920Y-15192150D01*
X7367586Y-15325484D02*
X7367586Y-15192150D01*
X7367586Y-15125484D02*
X7358062Y-15135008D01*
X7358062Y-15135008D02*
X7367586Y-15144531D01*
X7367586Y-15144531D02*
X7377110Y-15135008D01*
X7377110Y-15135008D02*
X7367586Y-15125484D01*
X7367586Y-15125484D02*
X7367586Y-15144531D01*
X7491396Y-15325484D02*
X7472348Y-15315960D01*
X7472348Y-15315960D02*
X7462824Y-15296912D01*
X7462824Y-15296912D02*
X7462824Y-15125484D01*
X7596158Y-15325484D02*
X7577110Y-15315960D01*
X7577110Y-15315960D02*
X7567586Y-15296912D01*
X7567586Y-15296912D02*
X7567586Y-15125484D01*
X7824729Y-15325484D02*
X7824729Y-15125484D01*
X7824729Y-15125484D02*
X7891396Y-15268341D01*
X7891396Y-15268341D02*
X7958062Y-15125484D01*
X7958062Y-15125484D02*
X7958062Y-15325484D01*
X8139015Y-15325484D02*
X8139015Y-15220722D01*
X8139015Y-15220722D02*
X8129491Y-15201674D01*
X8129491Y-15201674D02*
X8110443Y-15192150D01*
X8110443Y-15192150D02*
X8072348Y-15192150D01*
X8072348Y-15192150D02*
X8053301Y-15201674D01*
X8139015Y-15315960D02*
X8119967Y-15325484D01*
X8119967Y-15325484D02*
X8072348Y-15325484D01*
X8072348Y-15325484D02*
X8053301Y-15315960D01*
X8053301Y-15315960D02*
X8043777Y-15296912D01*
X8043777Y-15296912D02*
X8043777Y-15277865D01*
X8043777Y-15277865D02*
X8053301Y-15258817D01*
X8053301Y-15258817D02*
X8072348Y-15249293D01*
X8072348Y-15249293D02*
X8119967Y-15249293D01*
X8119967Y-15249293D02*
X8139015Y-15239769D01*
X8234253Y-15192150D02*
X8234253Y-15392150D01*
X8234253Y-15201674D02*
X8253301Y-15192150D01*
X8253301Y-15192150D02*
X8291396Y-15192150D01*
X8291396Y-15192150D02*
X8310443Y-15201674D01*
X8310443Y-15201674D02*
X8319967Y-15211198D01*
X8319967Y-15211198D02*
X8329491Y-15230246D01*
X8329491Y-15230246D02*
X8329491Y-15287388D01*
X8329491Y-15287388D02*
X8319967Y-15306436D01*
X8319967Y-15306436D02*
X8310443Y-15315960D01*
X8310443Y-15315960D02*
X8291396Y-15325484D01*
X8291396Y-15325484D02*
X8253301Y-15325484D01*
X8253301Y-15325484D02*
X8234253Y-15315960D01*
X8415205Y-15306436D02*
X8424729Y-15315960D01*
X8424729Y-15315960D02*
X8415205Y-15325484D01*
X8415205Y-15325484D02*
X8405682Y-15315960D01*
X8405682Y-15315960D02*
X8415205Y-15306436D01*
X8415205Y-15306436D02*
X8415205Y-15325484D01*
X8415205Y-15201674D02*
X8424729Y-15211198D01*
X8424729Y-15211198D02*
X8415205Y-15220722D01*
X8415205Y-15220722D02*
X8405682Y-15211198D01*
X8405682Y-15211198D02*
X8415205Y-15201674D01*
X8415205Y-15201674D02*
X8415205Y-15220722D01*
M02*
