M48
; DRILL file {KiCad 7.0.10} date Wednesday, February 07, 2024 at 10:08:24 PM
; FORMAT={-:-/ absolute / inch / decimal}
; #@! TF.CreationDate,2024-02-07T22:08:24+01:00
; #@! TF.GenerationSoftware,Kicad,Pcbnew,7.0.10
; #@! TF.FileFunction,Plated,1,4,PTH
FMAT,2
INCH
; #@! TA.AperFunction,Plated,PTH,ViaDrill
T1C0.0157
; #@! TA.AperFunction,Plated,PTH,ComponentDrill
T2C0.0157
; #@! TA.AperFunction,Plated,PTH,ComponentDrill
T3C0.0236
; #@! TA.AperFunction,Plated,PTH,ComponentDrill
T4C0.0315
; #@! TA.AperFunction,Plated,PTH,ComponentDrill
T5C0.0354
; #@! TA.AperFunction,Plated,PTH,ComponentDrill
T6C0.0394
; #@! TA.AperFunction,Plated,PTH,ComponentDrill
T7C0.0512
; #@! TA.AperFunction,Plated,PTH,ComponentDrill
T8C0.1260
%
G90
G05
T1
X2.7075Y-3.25
X2.9533Y-2.9514
X2.9732Y-2.5678
X3.0113Y-3.1324
X3.0445Y-2.9923
X3.1512Y-3.67
X3.1794Y-2.6212
X3.193Y-3.8266
X3.358Y-3.0288
X3.368Y-5.196
X3.3692Y-3.9509
X3.3755Y-2.498
X3.4309Y-4.2505
X3.4812Y-2.3386
X3.4914Y-2.6514
X3.52Y-3.186
X3.5764Y-3.9275
X3.6245Y-3.8364
X3.6274Y-4.074
X3.7742Y-3.8865
X3.8493Y-2.2255
X3.8911Y-5.8008
X3.9641Y-2.9722
X3.9911Y-2.0074
X4.3346Y-2.3698
X4.34Y-5.354
X4.4014Y-4.7755
X4.44Y-3.16
X4.4575Y-3.6412
X4.5132Y-4.9198
X4.5757Y-2.8136
X4.5784Y-4.6166
X4.5909Y-4.1469
X4.6002Y-4.9065
X4.6016Y-4.0944
X4.6197Y-3.0138
X4.6366Y-4.5866
X4.6695Y-4.0679
X4.7335Y-4.9159
X4.7564Y-4.5859
X4.7605Y-5.3814
X4.7948Y-4.3616
X4.8137Y-4.2254
X4.8436Y-4.3924
X4.8462Y-2.4752
X4.8644Y-3.8547
X4.8785Y-4.2662
X4.9144Y-5.393
X4.922Y-4.6561
X4.9444Y-4.5915
X4.9509Y-5.5517
X4.9644Y-3.0888
X4.9764Y-5.1494
X5.012Y-5.386
X5.0796Y-5.5629
X5.1106Y-4.3649
X5.2345Y-4.1069
X5.2351Y-4.8918
X5.237Y-5.1944
X5.2558Y-4.6219
X5.2914Y-4.7118
X5.3038Y-4.0007
X5.3924Y-3.6727
X5.444Y-5.248
X5.4862Y-5.0517
X5.4889Y-4.9833
X5.5461Y-2.4293
X5.594Y-2.6376
X5.6091Y-2.817
X5.6453Y-4.6399
X5.6668Y-5.8641
X5.6669Y-4.7045
X5.6672Y-2.5425
X5.6712Y-5.1799
X5.7276Y-4.613
X5.7344Y-3.6176
X5.7353Y-4.4486
X5.7923Y-2.0074
X5.8571Y-4.5205
X5.9149Y-3.9755
X5.9826Y-2.8451
X6.0066Y-4.599
X6.0076Y-4.0771
X6.0126Y-3.0638
X6.0128Y-4.4261
X6.016Y-3.948
X6.032Y-3.6084
X6.1499Y-5.1352
X6.1681Y-3.5796
X6.1885Y-4.6208
X6.2046Y-3.298
X6.212Y-3.448
X6.2136Y-3.162
X6.2215Y-4.4049
X6.242Y-3.2729
X6.3462Y-3.2593
X6.4359Y-4.3968
X6.4561Y-2.2155
X6.47Y-5.87
X6.4791Y-4.3563
X6.502Y-5.368
X6.5055Y-3.513
X6.6098Y-2.9345
X6.6102Y-3.7118
X6.6327Y-3.4976
X6.6899Y-3.7699
X6.7588Y-3.4778
X6.7649Y-4.191
X6.7918Y-2.9517
X6.796Y-4.2997
X6.9549Y-2.2063
X6.9875Y-2.885
X7.1107Y-2.3614
X7.1829Y-3.5651
X7.1963Y-3.1347
X7.253Y-5.8262
X7.2567Y-5.7305
X7.2903Y-2.7836
X7.3061Y-3.2829
X7.3208Y-3.8143
X7.3851Y-5.2533
X7.4516Y-4.4781
X7.5677Y-4.2587
X7.939Y-2.8232
T2
X8.3338Y-2.5384
X8.3338Y-2.5719
X8.3338Y-2.6053
X8.3338Y-2.6388
X8.3338Y-2.6722
X8.3338Y-2.7057
X8.3338Y-2.7392
X8.3338Y-2.7726
X8.3869Y-2.5384
X8.3869Y-2.5719
X8.3869Y-2.6053
X8.3869Y-2.6388
X8.3869Y-2.6722
X8.3869Y-2.7057
X8.3869Y-2.7392
X8.3869Y-2.7726
T3
X8.0709Y-3.7287
X8.0709Y-3.8075
X8.4185Y-5.4441
X8.4185Y-5.5228
T4
X3.0882Y-2.5492
X3.0882Y-2.6492
X3.0882Y-2.7492
X3.0882Y-2.8492
X3.0882Y-2.9492
X3.0882Y-3.0492
X3.0882Y-3.1492
X3.0882Y-3.2492
X3.0882Y-3.3492
X3.0906Y-3.5075
X3.0906Y-3.6059
X3.2549Y-5.4437
X3.2549Y-5.7437
X3.2579Y-2.148
X3.2579Y-2.248
X3.2579Y-2.348
X3.2579Y-2.448
X3.2579Y-2.548
X3.2579Y-2.648
X3.2579Y-2.748
X3.2579Y-2.848
X3.2579Y-2.948
X3.2579Y-3.048
X3.2579Y-3.148
X3.2579Y-3.248
X3.2579Y-3.348
X3.2579Y-3.448
X3.2579Y-3.548
X3.2579Y-3.648
X3.2579Y-3.748
X3.2579Y-3.848
X3.2579Y-3.948
X3.2579Y-4.048
X3.2579Y-4.148
X3.2579Y-4.248
X3.2579Y-4.348
X3.2579Y-4.448
X3.2579Y-4.548
X3.2579Y-4.648
X3.2579Y-4.748
X3.2579Y-4.848
X3.2579Y-4.948
X3.2579Y-5.048
X3.2579Y-5.148
X3.2579Y-5.248
X3.3549Y-5.4437
X3.3549Y-5.7437
X3.4549Y-5.4437
X3.4549Y-5.7437
X3.5549Y-5.4437
X3.5549Y-5.7437
X3.6549Y-5.4437
X3.6549Y-5.7437
X3.7549Y-5.4437
X3.7549Y-5.7437
X3.8549Y-5.4437
X3.8549Y-5.7437
X3.9549Y-5.4437
X3.9549Y-5.7437
X4.0549Y-5.4437
X4.0549Y-5.7437
X4.1549Y-5.4437
X4.1549Y-5.7437
X4.2549Y-5.4437
X4.2549Y-5.7437
X4.2579Y-2.148
X4.2579Y-2.248
X4.2579Y-2.348
X4.2579Y-2.448
X4.2579Y-2.548
X4.2579Y-2.648
X4.2579Y-2.748
X4.2579Y-2.848
X4.2579Y-2.948
X4.2579Y-3.048
X4.2579Y-3.148
X4.2579Y-3.248
X4.2579Y-3.348
X4.2579Y-3.448
X4.2579Y-3.548
X4.2579Y-3.648
X4.2579Y-3.748
X4.2579Y-3.848
X4.2579Y-3.948
X4.2579Y-4.048
X4.2579Y-4.148
X4.2579Y-4.248
X4.2579Y-4.348
X4.2579Y-4.448
X4.2579Y-4.548
X4.2579Y-4.648
X4.2579Y-4.748
X4.2579Y-4.848
X4.2579Y-4.948
X4.2579Y-5.048
X4.2579Y-5.148
X4.2579Y-5.248
X4.3549Y-5.4437
X4.3549Y-5.7437
X4.4492Y-4.4984
X4.4492Y-4.5969
X4.4571Y-4.9921
X4.4571Y-5.0906
X4.461Y-3.4354
X4.461Y-3.5339
X4.4639Y-2.9039
X4.4639Y-3.0024
X4.4639Y-3.7131
X4.4639Y-3.8116
X4.5343Y-5.6512
X4.5343Y-5.7496
X4.6339Y-2.9073
X4.6339Y-3.5073
X4.6354Y-3.7094
X4.6354Y-4.3094
X4.6366Y-4.4953
X4.6366Y-4.7953
X4.6366Y-4.9925
X4.6366Y-5.2925
X4.7339Y-2.9073
X4.7339Y-3.5073
X4.7354Y-3.7094
X4.7354Y-4.3094
X4.7366Y-4.4953
X4.7366Y-4.7953
X4.7366Y-4.9925
X4.7366Y-5.2925
X4.7677Y-5.4791
X4.7677Y-5.5776
X4.8339Y-2.9073
X4.8339Y-3.5073
X4.8354Y-3.7094
X4.8354Y-4.3094
X4.8366Y-4.4953
X4.8366Y-4.7953
X4.8366Y-4.9925
X4.8366Y-5.2925
X4.9339Y-2.9073
X4.9339Y-3.5073
X4.9354Y-3.7094
X4.9354Y-4.3094
X4.9366Y-4.4953
X4.9366Y-4.7953
X4.9366Y-4.9925
X4.9366Y-5.2925
X4.9419Y-5.4823
X4.9419Y-5.7823
X5.0339Y-2.9073
X5.0339Y-3.5073
X5.0354Y-3.7094
X5.0354Y-4.3094
X5.0366Y-4.4953
X5.0366Y-4.7953
X5.0366Y-4.9925
X5.0366Y-5.2925
X5.0419Y-5.4823
X5.0419Y-5.7823
X5.1339Y-2.9073
X5.1339Y-3.5073
X5.1354Y-3.7094
X5.1354Y-4.3094
X5.1366Y-4.4953
X5.1366Y-4.7953
X5.1366Y-4.9925
X5.1366Y-5.2925
X5.1419Y-5.4823
X5.1419Y-5.7823
X5.2138Y-2.1075
X5.2138Y-2.7075
X5.2339Y-2.9073
X5.2339Y-3.5073
X5.2354Y-3.7094
X5.2354Y-4.3094
X5.2366Y-4.4953
X5.2366Y-4.7953
X5.2366Y-4.9925
X5.2366Y-5.2925
X5.2419Y-5.4823
X5.2419Y-5.7823
X5.3138Y-2.1075
X5.3138Y-2.7075
X5.3339Y-2.9073
X5.3339Y-3.5073
X5.3354Y-3.7094
X5.3354Y-4.3094
X5.3366Y-4.4953
X5.3366Y-4.7953
X5.3366Y-4.9925
X5.3366Y-5.2925
X5.3419Y-5.4823
X5.3419Y-5.7823
X5.4138Y-2.1075
X5.4138Y-2.7075
X5.4339Y-2.9073
X5.4339Y-3.5073
X5.4354Y-3.7094
X5.4354Y-4.3094
X5.4419Y-5.4823
X5.4419Y-5.7823
X5.5138Y-2.1075
X5.5138Y-2.7075
X5.5339Y-2.9073
X5.5339Y-3.5073
X5.5354Y-3.7094
X5.5354Y-4.3094
X5.5419Y-5.4823
X5.5419Y-5.7823
X5.5508Y-4.5024
X5.5508Y-4.6024
X5.5508Y-4.7024
X5.5508Y-4.8024
X5.5508Y-4.9024
X5.5508Y-5.0024
X5.5508Y-5.1024
X5.5508Y-5.2024
X5.5508Y-5.3024
X5.6138Y-2.1075
X5.6138Y-2.7075
X5.6339Y-2.9073
X5.6339Y-3.5073
X5.6354Y-3.7094
X5.6354Y-4.3094
X5.7138Y-2.1075
X5.7138Y-2.7075
X5.7339Y-2.9073
X5.7339Y-3.5073
X5.7354Y-3.7094
X5.7354Y-4.3094
X5.7701Y-4.6852
X5.7701Y-4.7852
X5.7701Y-4.8852
X5.7701Y-4.9852
X5.7701Y-5.0852
X5.7701Y-5.1852
X5.7701Y-5.2852
X5.7906Y-5.474
X5.7906Y-5.5724
X5.8138Y-2.1075
X5.8138Y-2.7075
X5.8339Y-2.9073
X5.8339Y-3.5073
X5.8354Y-3.7094
X5.8354Y-4.3094
X5.9138Y-2.1075
X5.9138Y-2.7075
X5.9339Y-2.9073
X5.9339Y-3.5073
X5.9354Y-3.7094
X5.9354Y-4.3094
X5.9697Y-5.4756
X5.9697Y-5.7756
X5.9764Y-4.5024
X6.0138Y-2.1075
X6.0138Y-2.7075
X6.0339Y-2.9073
X6.0339Y-3.5073
X6.0354Y-3.7094
X6.0354Y-4.3094
X6.0697Y-5.4756
X6.0697Y-5.7756
X6.0701Y-4.6852
X6.0701Y-4.7852
X6.0701Y-4.8852
X6.0701Y-4.9852
X6.0701Y-5.0852
X6.0701Y-5.1852
X6.0701Y-5.2852
X6.0748Y-4.5024
X6.1138Y-2.1075
X6.1138Y-2.7075
X6.1339Y-2.9073
X6.1339Y-3.5073
X6.1354Y-3.7094
X6.1354Y-4.3094
X6.1697Y-5.4756
X6.1697Y-5.7756
X6.2138Y-2.1075
X6.2138Y-2.7075
X6.2697Y-5.4756
X6.2697Y-5.7756
X6.2732Y-4.6878
X6.2732Y-4.7878
X6.2732Y-4.8878
X6.2732Y-4.9878
X6.2732Y-5.0878
X6.2732Y-5.1878
X6.2732Y-5.2878
X6.3071Y-2.9028
X6.3138Y-2.1075
X6.3138Y-2.7075
X6.3697Y-5.4756
X6.3697Y-5.7756
X6.4055Y-2.9028
X6.4138Y-2.1075
X6.4138Y-2.7075
X6.4697Y-5.4756
X6.4697Y-5.7756
X6.4756Y-4.5047
X6.5138Y-2.1075
X6.5138Y-2.7075
X6.5697Y-5.4756
X6.5697Y-5.7756
X6.5732Y-4.6878
X6.5732Y-4.7878
X6.5732Y-4.8878
X6.5732Y-4.9878
X6.5732Y-5.0878
X6.5732Y-5.1878
X6.5732Y-5.2878
X6.574Y-4.5047
X6.6138Y-2.1075
X6.6138Y-2.7075
X6.6193Y-3.1331
X6.6193Y-3.2315
X6.6193Y-3.9758
X6.6193Y-4.0743
X6.7138Y-2.1075
X6.7138Y-2.7075
X6.7646Y-4.6878
X6.7646Y-4.7878
X6.7646Y-4.8878
X6.7646Y-4.9878
X6.7646Y-5.0878
X6.7646Y-5.1878
X6.7646Y-5.2878
X6.7646Y-5.3878
X6.7646Y-5.4878
X6.8138Y-2.1075
X6.8138Y-2.7075
X6.8493Y-3.0458
X6.8493Y-3.1458
X6.8493Y-3.2458
X6.8493Y-3.3458
X6.8493Y-3.8643
X6.8493Y-3.9643
X6.8493Y-4.0643
X6.8493Y-4.1643
X6.9138Y-2.1075
X6.9138Y-2.7075
X6.9493Y-2.9458
X6.9493Y-3.0458
X6.9493Y-3.1458
X6.9493Y-3.2458
X6.9493Y-3.3458
X6.9493Y-3.4458
X6.9493Y-3.7643
X6.9493Y-3.8643
X6.9493Y-3.9643
X6.9493Y-4.0643
X6.9493Y-4.1643
X6.9493Y-4.2643
X7.0138Y-2.1075
X7.0138Y-2.7075
X7.0177Y-4.6268
X7.0493Y-2.9458
X7.0493Y-3.0458
X7.0493Y-3.3458
X7.0493Y-3.4458
X7.0493Y-3.7643
X7.0493Y-3.8643
X7.0493Y-4.1643
X7.0493Y-4.2643
X7.0673Y-4.8555
X7.0673Y-5.1555
X7.1138Y-2.1075
X7.1138Y-2.7075
X7.1161Y-4.6268
X7.1493Y-2.9458
X7.1493Y-3.0458
X7.1493Y-3.3458
X7.1493Y-3.4458
X7.1493Y-3.7643
X7.1493Y-3.8643
X7.1493Y-4.1643
X7.1493Y-4.2643
X7.2138Y-2.1075
X7.2138Y-2.7075
X7.2493Y-2.9458
X7.2493Y-3.0458
X7.2493Y-3.3458
X7.2493Y-3.4458
X7.2493Y-3.7643
X7.2493Y-3.8643
X7.2493Y-4.1643
X7.2493Y-4.2643
X7.3138Y-2.1075
X7.3138Y-2.7075
X7.3493Y-2.9458
X7.3493Y-3.0458
X7.3493Y-3.1458
X7.3493Y-3.2458
X7.3493Y-3.3458
X7.3493Y-3.4458
X7.3493Y-3.7643
X7.3493Y-3.8643
X7.3493Y-3.9643
X7.3493Y-4.0643
X7.3493Y-4.1643
X7.3493Y-4.2643
X7.3673Y-4.8555
X7.3673Y-5.1555
X7.4138Y-2.1075
X7.4138Y-2.7075
X7.4493Y-3.0458
X7.4493Y-3.1458
X7.4493Y-3.2458
X7.4493Y-3.3458
X7.4493Y-3.8643
X7.4493Y-3.9643
X7.4493Y-4.0643
X7.4493Y-4.1643
X7.5138Y-2.1075
X7.5138Y-2.7075
X7.613Y-4.8004
X7.685Y-4.9642
X7.685Y-5.2642
X7.7469Y-4.2823
X7.7469Y-4.5823
X7.7508Y-3.8272
X7.7508Y-4.1272
X7.8343Y-3.0302
X7.8705Y-4.9642
X7.8705Y-5.2642
X7.913Y-4.8004
X7.9205Y-2.1524
X7.9205Y-2.302
X7.9283Y-4.5579
X7.9303Y-4.3772
X7.9327Y-3.0302
X7.9374Y-3.2496
X7.9374Y-3.4386
X7.9441Y-4.1992
X7.9445Y-4.024
X7.9705Y-4.9642
X7.9705Y-5.2642
X8.0705Y-4.9642
X8.0705Y-5.2642
X8.074Y-4.8
X8.1008Y-3.0307
X8.1705Y-4.9642
X8.1705Y-5.2642
X8.1724Y-4.8
X8.1992Y-3.0307
X8.2283Y-4.5579
X8.2303Y-4.3772
X8.2374Y-3.2496
X8.2374Y-3.4386
X8.2441Y-4.1992
X8.2445Y-4.024
X8.3512Y-4.9563
X8.3512Y-5.0547
X8.3528Y-5.1996
X8.3528Y-5.298
T5
X8.398Y-4.2213
X8.3984Y-4.7809
X8.3996Y-3.9461
X8.402Y-4.4994
X8.498Y-4.2213
X8.4984Y-4.7809
X8.4996Y-3.9461
X8.502Y-4.4994
T6
X2.8051Y-2.3976
X2.8051Y-2.4976
X2.8051Y-2.5976
X2.8051Y-2.6976
X2.8051Y-2.7976
X2.8051Y-2.8976
X2.8051Y-2.9976
X2.8051Y-3.0976
X2.8051Y-3.1976
X2.8051Y-3.2976
X2.8051Y-3.3976
X2.8051Y-3.4976
X2.8051Y-3.5976
X2.8051Y-3.6976
X2.8051Y-3.7976
X2.8051Y-3.8976
X2.8051Y-3.9976
X2.8051Y-4.0976
X2.8051Y-4.1976
X2.8051Y-4.2976
X2.8051Y-4.3976
X2.8051Y-4.4976
X2.8051Y-4.5976
X2.8051Y-4.6976
X2.8051Y-4.7976
X2.8051Y-4.8976
X2.8051Y-4.9976
X2.8051Y-5.0976
X2.8051Y-5.1976
X2.8051Y-5.2976
X2.8051Y-5.3976
X2.8051Y-5.4976
X2.9051Y-2.3976
X2.9051Y-2.4976
X2.9051Y-2.5976
X2.9051Y-2.6976
X2.9051Y-2.7976
X2.9051Y-2.8976
X2.9051Y-2.9976
X2.9051Y-3.0976
X2.9051Y-3.1976
X2.9051Y-3.2976
X2.9051Y-3.3976
X2.9051Y-3.4976
X2.9051Y-3.5976
X2.9051Y-3.6976
X2.9051Y-3.7976
X2.9051Y-3.8976
X2.9051Y-3.9976
X2.9051Y-4.0976
X2.9051Y-4.1976
X2.9051Y-4.2976
X2.9051Y-4.3976
X2.9051Y-4.4976
X2.9051Y-4.5976
X2.9051Y-4.6976
X2.9051Y-4.7976
X2.9051Y-4.8976
X2.9051Y-4.9976
X2.9051Y-5.0976
X2.9051Y-5.1976
X2.9051Y-5.2976
X2.9051Y-5.3976
X2.9051Y-5.4976
X6.7642Y-5.6839
X6.7642Y-5.7839
X8.3752Y-3.0136
X8.3752Y-3.1136
X8.3752Y-3.2136
X8.3752Y-3.3136
X8.3752Y-3.4136
X8.3752Y-3.5136
X8.3752Y-3.6136
X8.3752Y-3.7136
X8.4752Y-3.0136
X8.4752Y-3.1136
X8.4752Y-3.2136
X8.4752Y-3.3136
X8.4752Y-3.4136
X8.4752Y-3.5136
X8.4752Y-3.6136
X8.4752Y-3.7136
T7
X6.9665Y-5.5079
X6.9665Y-5.7047
X7.4587Y-5.5079
X7.4587Y-5.7047
X7.6913Y-5.5098
X7.6913Y-5.7067
X8.1835Y-5.5098
X8.1835Y-5.7067
T8
X2.8482Y-2.1577
X2.8484Y-5.7295
X8.4093Y-2.1734
X8.4211Y-5.7453
T3
G00X8.3428Y-2.4852
M15
G01X8.4019Y-2.4852
M16
G05
G00X8.3428Y-2.8258
M15
G01X8.4019Y-2.8258
M16
G05
G00X8.4897Y-2.4852
M15
G01X8.5212Y-2.4852
M16
G05
G00X8.4897Y-2.8258
M15
G01X8.5212Y-2.8258
M16
G05
M30
